<?xml version="1.0" encoding="utf-8" standalone="no"?>
<!DOCTYPE svg PUBLIC "-//W3C//DTD SVG 1.1//EN"
  "http://www.w3.org/Graphics/SVG/1.1/DTD/svg11.dtd">
<!-- Created with matplotlib (http://matplotlib.org/) -->
<svg height="300.690125pt" version="1.1" viewBox="0 0 531.547875 300.690125" width="531.547875pt" xmlns="http://www.w3.org/2000/svg" xmlns:xlink="http://www.w3.org/1999/xlink">
 <defs>
  <style type="text/css">
*{stroke-linecap:butt;stroke-linejoin:round;}
  </style>
 </defs>
 <g id="figure_1">
  <g id="patch_1">
   <path d="M 0 300.690125 
L 531.547875 300.690125 
L 531.547875 0 
L 0 0 
z
" style="fill:#ffffff;"/>
  </g>
  <g id="axes_1">
   <g id="patch_2">
    <path d="M 41.667188 276.812 
L 398.787188 276.812 
L 398.787188 10.7 
L 41.667188 10.7 
z
" style="fill:#ffffff;"/>
   </g>
   <g id="matplotlib.axis_1">
    <g id="xtick_1">
     <g id="line2d_1">
      <defs>
       <path d="M 0 0 
L 0 3.5 
" id="m7d5b390289" style="stroke:#000000;stroke-width:0.8;"/>
      </defs>
      <g>
       <use style="stroke:#000000;stroke-width:0.8;" x="52.34429" xlink:href="#m7d5b390289" y="276.812"/>
      </g>
     </g>
     <g id="text_1">
      <!-- 0 -->
      <defs>
       <path d="M 31.78125 66.40625 
Q 24.171875 66.40625 20.328125 58.90625 
Q 16.5 51.421875 16.5 36.375 
Q 16.5 21.390625 20.328125 13.890625 
Q 24.171875 6.390625 31.78125 6.390625 
Q 39.453125 6.390625 43.28125 13.890625 
Q 47.125 21.390625 47.125 36.375 
Q 47.125 51.421875 43.28125 58.90625 
Q 39.453125 66.40625 31.78125 66.40625 
z
M 31.78125 74.21875 
Q 44.046875 74.21875 50.515625 64.515625 
Q 56.984375 54.828125 56.984375 36.375 
Q 56.984375 17.96875 50.515625 8.265625 
Q 44.046875 -1.421875 31.78125 -1.421875 
Q 19.53125 -1.421875 13.0625 8.265625 
Q 6.59375 17.96875 6.59375 36.375 
Q 6.59375 54.828125 13.0625 64.515625 
Q 19.53125 74.21875 31.78125 74.21875 
z
" id="DejaVuSans-30"/>
      </defs>
      <g transform="translate(49.16304 291.410437)scale(0.1 -0.1)">
       <use xlink:href="#DejaVuSans-30"/>
      </g>
     </g>
    </g>
    <g id="xtick_2">
     <g id="line2d_2">
      <g>
       <use style="stroke:#000000;stroke-width:0.8;" x="105.256584" xlink:href="#m7d5b390289" y="276.812"/>
      </g>
     </g>
     <g id="text_2">
      <!-- 100 -->
      <defs>
       <path d="M 12.40625 8.296875 
L 28.515625 8.296875 
L 28.515625 63.921875 
L 10.984375 60.40625 
L 10.984375 69.390625 
L 28.421875 72.90625 
L 38.28125 72.90625 
L 38.28125 8.296875 
L 54.390625 8.296875 
L 54.390625 0 
L 12.40625 0 
z
" id="DejaVuSans-31"/>
      </defs>
      <g transform="translate(95.712834 291.410437)scale(0.1 -0.1)">
       <use xlink:href="#DejaVuSans-31"/>
       <use x="63.623047" xlink:href="#DejaVuSans-30"/>
       <use x="127.246094" xlink:href="#DejaVuSans-30"/>
      </g>
     </g>
    </g>
    <g id="xtick_3">
     <g id="line2d_3">
      <g>
       <use style="stroke:#000000;stroke-width:0.8;" x="158.168879" xlink:href="#m7d5b390289" y="276.812"/>
      </g>
     </g>
     <g id="text_3">
      <!-- 200 -->
      <defs>
       <path d="M 19.1875 8.296875 
L 53.609375 8.296875 
L 53.609375 0 
L 7.328125 0 
L 7.328125 8.296875 
Q 12.9375 14.109375 22.625 23.890625 
Q 32.328125 33.6875 34.8125 36.53125 
Q 39.546875 41.84375 41.421875 45.53125 
Q 43.3125 49.21875 43.3125 52.78125 
Q 43.3125 58.59375 39.234375 62.25 
Q 35.15625 65.921875 28.609375 65.921875 
Q 23.96875 65.921875 18.8125 64.3125 
Q 13.671875 62.703125 7.8125 59.421875 
L 7.8125 69.390625 
Q 13.765625 71.78125 18.9375 73 
Q 24.125 74.21875 28.421875 74.21875 
Q 39.75 74.21875 46.484375 68.546875 
Q 53.21875 62.890625 53.21875 53.421875 
Q 53.21875 48.921875 51.53125 44.890625 
Q 49.859375 40.875 45.40625 35.40625 
Q 44.1875 33.984375 37.640625 27.21875 
Q 31.109375 20.453125 19.1875 8.296875 
z
" id="DejaVuSans-32"/>
      </defs>
      <g transform="translate(148.625129 291.410437)scale(0.1 -0.1)">
       <use xlink:href="#DejaVuSans-32"/>
       <use x="63.623047" xlink:href="#DejaVuSans-30"/>
       <use x="127.246094" xlink:href="#DejaVuSans-30"/>
      </g>
     </g>
    </g>
    <g id="xtick_4">
     <g id="line2d_4">
      <g>
       <use style="stroke:#000000;stroke-width:0.8;" x="211.081173" xlink:href="#m7d5b390289" y="276.812"/>
      </g>
     </g>
     <g id="text_4">
      <!-- 300 -->
      <defs>
       <path d="M 40.578125 39.3125 
Q 47.65625 37.796875 51.625 33 
Q 55.609375 28.21875 55.609375 21.1875 
Q 55.609375 10.40625 48.1875 4.484375 
Q 40.765625 -1.421875 27.09375 -1.421875 
Q 22.515625 -1.421875 17.65625 -0.515625 
Q 12.796875 0.390625 7.625 2.203125 
L 7.625 11.71875 
Q 11.71875 9.328125 16.59375 8.109375 
Q 21.484375 6.890625 26.8125 6.890625 
Q 36.078125 6.890625 40.9375 10.546875 
Q 45.796875 14.203125 45.796875 21.1875 
Q 45.796875 27.640625 41.28125 31.265625 
Q 36.765625 34.90625 28.71875 34.90625 
L 20.21875 34.90625 
L 20.21875 43.015625 
L 29.109375 43.015625 
Q 36.375 43.015625 40.234375 45.921875 
Q 44.09375 48.828125 44.09375 54.296875 
Q 44.09375 59.90625 40.109375 62.90625 
Q 36.140625 65.921875 28.71875 65.921875 
Q 24.65625 65.921875 20.015625 65.03125 
Q 15.375 64.15625 9.8125 62.3125 
L 9.8125 71.09375 
Q 15.4375 72.65625 20.34375 73.4375 
Q 25.25 74.21875 29.59375 74.21875 
Q 40.828125 74.21875 47.359375 69.109375 
Q 53.90625 64.015625 53.90625 55.328125 
Q 53.90625 49.265625 50.4375 45.09375 
Q 46.96875 40.921875 40.578125 39.3125 
z
" id="DejaVuSans-33"/>
      </defs>
      <g transform="translate(201.537423 291.410437)scale(0.1 -0.1)">
       <use xlink:href="#DejaVuSans-33"/>
       <use x="63.623047" xlink:href="#DejaVuSans-30"/>
       <use x="127.246094" xlink:href="#DejaVuSans-30"/>
      </g>
     </g>
    </g>
    <g id="xtick_5">
     <g id="line2d_5">
      <g>
       <use style="stroke:#000000;stroke-width:0.8;" x="263.993467" xlink:href="#m7d5b390289" y="276.812"/>
      </g>
     </g>
     <g id="text_5">
      <!-- 400 -->
      <defs>
       <path d="M 37.796875 64.3125 
L 12.890625 25.390625 
L 37.796875 25.390625 
z
M 35.203125 72.90625 
L 47.609375 72.90625 
L 47.609375 25.390625 
L 58.015625 25.390625 
L 58.015625 17.1875 
L 47.609375 17.1875 
L 47.609375 0 
L 37.796875 0 
L 37.796875 17.1875 
L 4.890625 17.1875 
L 4.890625 26.703125 
z
" id="DejaVuSans-34"/>
      </defs>
      <g transform="translate(254.449717 291.410437)scale(0.1 -0.1)">
       <use xlink:href="#DejaVuSans-34"/>
       <use x="63.623047" xlink:href="#DejaVuSans-30"/>
       <use x="127.246094" xlink:href="#DejaVuSans-30"/>
      </g>
     </g>
    </g>
    <g id="xtick_6">
     <g id="line2d_6">
      <g>
       <use style="stroke:#000000;stroke-width:0.8;" x="316.905762" xlink:href="#m7d5b390289" y="276.812"/>
      </g>
     </g>
     <g id="text_6">
      <!-- 500 -->
      <defs>
       <path d="M 10.796875 72.90625 
L 49.515625 72.90625 
L 49.515625 64.59375 
L 19.828125 64.59375 
L 19.828125 46.734375 
Q 21.96875 47.46875 24.109375 47.828125 
Q 26.265625 48.1875 28.421875 48.1875 
Q 40.625 48.1875 47.75 41.5 
Q 54.890625 34.8125 54.890625 23.390625 
Q 54.890625 11.625 47.5625 5.09375 
Q 40.234375 -1.421875 26.90625 -1.421875 
Q 22.3125 -1.421875 17.546875 -0.640625 
Q 12.796875 0.140625 7.71875 1.703125 
L 7.71875 11.625 
Q 12.109375 9.234375 16.796875 8.0625 
Q 21.484375 6.890625 26.703125 6.890625 
Q 35.15625 6.890625 40.078125 11.328125 
Q 45.015625 15.765625 45.015625 23.390625 
Q 45.015625 31 40.078125 35.4375 
Q 35.15625 39.890625 26.703125 39.890625 
Q 22.75 39.890625 18.8125 39.015625 
Q 14.890625 38.140625 10.796875 36.28125 
z
" id="DejaVuSans-35"/>
      </defs>
      <g transform="translate(307.362012 291.410437)scale(0.1 -0.1)">
       <use xlink:href="#DejaVuSans-35"/>
       <use x="63.623047" xlink:href="#DejaVuSans-30"/>
       <use x="127.246094" xlink:href="#DejaVuSans-30"/>
      </g>
     </g>
    </g>
    <g id="xtick_7">
     <g id="line2d_7">
      <g>
       <use style="stroke:#000000;stroke-width:0.8;" x="369.818056" xlink:href="#m7d5b390289" y="276.812"/>
      </g>
     </g>
     <g id="text_7">
      <!-- 600 -->
      <defs>
       <path d="M 33.015625 40.375 
Q 26.375 40.375 22.484375 35.828125 
Q 18.609375 31.296875 18.609375 23.390625 
Q 18.609375 15.53125 22.484375 10.953125 
Q 26.375 6.390625 33.015625 6.390625 
Q 39.65625 6.390625 43.53125 10.953125 
Q 47.40625 15.53125 47.40625 23.390625 
Q 47.40625 31.296875 43.53125 35.828125 
Q 39.65625 40.375 33.015625 40.375 
z
M 52.59375 71.296875 
L 52.59375 62.3125 
Q 48.875 64.0625 45.09375 64.984375 
Q 41.3125 65.921875 37.59375 65.921875 
Q 27.828125 65.921875 22.671875 59.328125 
Q 17.53125 52.734375 16.796875 39.40625 
Q 19.671875 43.65625 24.015625 45.921875 
Q 28.375 48.1875 33.59375 48.1875 
Q 44.578125 48.1875 50.953125 41.515625 
Q 57.328125 34.859375 57.328125 23.390625 
Q 57.328125 12.15625 50.6875 5.359375 
Q 44.046875 -1.421875 33.015625 -1.421875 
Q 20.359375 -1.421875 13.671875 8.265625 
Q 6.984375 17.96875 6.984375 36.375 
Q 6.984375 53.65625 15.1875 63.9375 
Q 23.390625 74.21875 37.203125 74.21875 
Q 40.921875 74.21875 44.703125 73.484375 
Q 48.484375 72.75 52.59375 71.296875 
z
" id="DejaVuSans-36"/>
      </defs>
      <g transform="translate(360.274306 291.410437)scale(0.1 -0.1)">
       <use xlink:href="#DejaVuSans-36"/>
       <use x="63.623047" xlink:href="#DejaVuSans-30"/>
       <use x="127.246094" xlink:href="#DejaVuSans-30"/>
      </g>
     </g>
    </g>
   </g>
   <g id="matplotlib.axis_2">
    <g id="ytick_1">
     <g id="line2d_8">
      <defs>
       <path d="M 0 0 
L -3.5 0 
" id="m6c8eb321b6" style="stroke:#000000;stroke-width:0.8;"/>
      </defs>
      <g>
       <use style="stroke:#000000;stroke-width:0.8;" x="41.667188" xlink:href="#m6c8eb321b6" y="238.137883"/>
      </g>
     </g>
     <g id="text_8">
      <!-- −500 -->
      <defs>
       <path d="M 10.59375 35.5 
L 73.1875 35.5 
L 73.1875 27.203125 
L 10.59375 27.203125 
z
" id="DejaVuSans-2212"/>
      </defs>
      <g transform="translate(7.2 241.937102)scale(0.1 -0.1)">
       <use xlink:href="#DejaVuSans-2212"/>
       <use x="83.789062" xlink:href="#DejaVuSans-35"/>
       <use x="147.412109" xlink:href="#DejaVuSans-30"/>
       <use x="211.035156" xlink:href="#DejaVuSans-30"/>
      </g>
     </g>
    </g>
    <g id="ytick_2">
     <g id="line2d_9">
      <g>
       <use style="stroke:#000000;stroke-width:0.8;" x="41.667188" xlink:href="#m6c8eb321b6" y="194.282349"/>
      </g>
     </g>
     <g id="text_9">
      <!-- −400 -->
      <g transform="translate(7.2 198.081568)scale(0.1 -0.1)">
       <use xlink:href="#DejaVuSans-2212"/>
       <use x="83.789062" xlink:href="#DejaVuSans-34"/>
       <use x="147.412109" xlink:href="#DejaVuSans-30"/>
       <use x="211.035156" xlink:href="#DejaVuSans-30"/>
      </g>
     </g>
    </g>
    <g id="ytick_3">
     <g id="line2d_10">
      <g>
       <use style="stroke:#000000;stroke-width:0.8;" x="41.667188" xlink:href="#m6c8eb321b6" y="150.426814"/>
      </g>
     </g>
     <g id="text_10">
      <!-- −300 -->
      <g transform="translate(7.2 154.226033)scale(0.1 -0.1)">
       <use xlink:href="#DejaVuSans-2212"/>
       <use x="83.789062" xlink:href="#DejaVuSans-33"/>
       <use x="147.412109" xlink:href="#DejaVuSans-30"/>
       <use x="211.035156" xlink:href="#DejaVuSans-30"/>
      </g>
     </g>
    </g>
    <g id="ytick_4">
     <g id="line2d_11">
      <g>
       <use style="stroke:#000000;stroke-width:0.8;" x="41.667188" xlink:href="#m6c8eb321b6" y="106.57128"/>
      </g>
     </g>
     <g id="text_11">
      <!-- −200 -->
      <g transform="translate(7.2 110.370498)scale(0.1 -0.1)">
       <use xlink:href="#DejaVuSans-2212"/>
       <use x="83.789062" xlink:href="#DejaVuSans-32"/>
       <use x="147.412109" xlink:href="#DejaVuSans-30"/>
       <use x="211.035156" xlink:href="#DejaVuSans-30"/>
      </g>
     </g>
    </g>
    <g id="ytick_5">
     <g id="line2d_12">
      <g>
       <use style="stroke:#000000;stroke-width:0.8;" x="41.667188" xlink:href="#m6c8eb321b6" y="62.715745"/>
      </g>
     </g>
     <g id="text_12">
      <!-- −100 -->
      <g transform="translate(7.2 66.514964)scale(0.1 -0.1)">
       <use xlink:href="#DejaVuSans-2212"/>
       <use x="83.789062" xlink:href="#DejaVuSans-31"/>
       <use x="147.412109" xlink:href="#DejaVuSans-30"/>
       <use x="211.035156" xlink:href="#DejaVuSans-30"/>
      </g>
     </g>
    </g>
    <g id="ytick_6">
     <g id="line2d_13">
      <g>
       <use style="stroke:#000000;stroke-width:0.8;" x="41.667188" xlink:href="#m6c8eb321b6" y="18.860211"/>
      </g>
     </g>
     <g id="text_13">
      <!-- 0 -->
      <g transform="translate(28.304688 22.659429)scale(0.1 -0.1)">
       <use xlink:href="#DejaVuSans-30"/>
      </g>
     </g>
    </g>
   </g>
   <g id="line2d_14">
    <path clip-path="url(#p1e1816346f)" d="M 57.899915 96.501347 
L 68.890922 97.124759 
L 70.390893 95.553049 
L 72.155807 93.349661 
L 74.668076 89.794732 
L 79.128824 83.468083 
L 81.636319 80.331049 
L 84.001505 77.717058 
L 86.47952 75.314992 
L 89.048741 73.146024 
L 91.676824 71.219471 
L 94.575965 69.386403 
L 97.492258 67.805612 
L 100.675217 66.336183 
L 104.143446 64.993805 
L 107.915549 63.79417 
L 111.624083 62.840664 
L 115.613106 62.029882 
L 119.896597 61.373615 
L 124.488534 60.88365 
L 129.402895 60.571777 
L 134.653657 60.449783 
L 140.2548 60.529458 
L 146.2203 60.82259 
L 151.26443 61.218707 
L 151.49135 61.467388 
L 151.214545 70.482224 
L 150.733817 79.131471 
L 150.029756 87.736618 
L 149.128333 95.968402 
L 148.041034 103.837463 
L 146.779347 111.354443 
L 145.354759 118.529983 
L 143.717628 125.622018 
L 141.93047 132.370165 
L 140.006097 138.78629 
L 137.882009 145.094203 
L 135.638707 151.07187 
L 133.207747 156.922176 
L 130.594467 162.62654 
L 127.80714 168.168319 
L 124.857248 173.533059 
L 121.759761 178.708751 
L 118.44093 183.823315 
L 114.831109 188.968483 
L 110.965555 194.085175 
L 106.62985 199.444294 
L 101.511975 205.40239 
L 89.177189 219.58693 
L 86.829075 222.736808 
L 85.136914 225.364472 
L 83.909295 227.667046 
L 83.042066 229.743766 
L 82.44428 231.75048 
L 82.112929 233.629826 
L 82.01009 235.459797 
L 82.129801 237.319241 
L 82.5994 240.424405 
L 83.183632 242.730664 
L 83.966705 244.931911 
L 84.938117 247.025537 
L 86.087365 249.008928 
L 87.403946 250.879474 
L 88.877357 252.634562 
L 90.497095 254.271582 
L 92.252658 255.787922 
L 94.622113 257.509661 
L 97.16687 259.033657 
L 99.866413 260.354807 
L 102.700231 261.468012 
L 105.647809 262.368171 
L 108.688634 263.050183 
L 111.802193 263.508947 
L 114.967971 263.739362 
L 117.697141 263.611748 
L 121.258367 263.253309 
L 124.503215 262.712549 
L 127.583506 261.976607 
L 130.386352 261.085863 
L 133.048399 260.011365 
L 135.574702 258.750913 
L 137.970315 257.302304 
L 140.240295 255.663337 
L 142.389695 253.831811 
L 144.423571 251.805524 
L 146.346978 249.582276 
L 148.241701 247.04999 
L 150.027388 244.298344 
L 151.777724 241.196089 
L 153.486158 237.711335 
L 155.147252 233.810313 
L 156.756844 229.45731 
L 158.31222 224.614595 
L 159.860509 219.056859 
L 161.392439 212.701969 
L 162.90253 205.460587 
L 164.428749 197.005303 
L 165.968726 187.17871 
L 167.599269 175.269094 
L 169.401318 160.365122 
L 171.620426 139.997062 
L 176.712532 90.317979 
L 179.868208 60.904038 
L 245.876854 60.904038 
L 245.867071 61.399315 
L 244.896491 73.711362 
L 243.565625 87.698129 
L 241.718895 104.656278 
L 238.183154 134.6012 
L 235.600849 157.4043 
L 234.0842 172.743918 
L 233.025577 185.645524 
L 232.293672 197.225916 
L 231.840656 207.858746 
L 231.754755 213.427756 
L 232.028711 217.340295 
L 232.526367 221.099507 
L 233.241407 224.704589 
L 234.167517 228.154734 
L 235.298381 231.449137 
L 236.627683 234.586993 
L 238.149108 237.567496 
L 239.85634 240.389842 
L 241.743064 243.053225 
L 243.802965 245.556839 
L 246.029726 247.89988 
L 248.417034 250.081541 
L 250.958571 252.101019 
L 253.648023 253.957507 
L 256.479074 255.6502 
L 259.445409 257.178292 
L 262.540712 258.54098 
L 266.123515 259.860103 
L 269.849078 260.972923 
L 273.708738 261.878335 
L 277.693831 262.575235 
L 281.795695 263.062517 
L 286.005666 263.339078 
L 291.461798 263.435155 
L 295.516088 263.305225 
L 299.419188 262.965605 
L 303.333212 262.397793 
L 307.087584 261.622514 
L 310.684841 260.650415 
L 314.127521 259.492146 
L 317.418163 258.158355 
L 320.686977 256.593825 
L 323.79644 254.862429 
L 326.864325 252.897706 
L 329.766186 250.779058 
L 332.607388 248.430518 
L 335.372248 245.851298 
L 338.045205 243.04355 
L 340.528596 240.115563 
L 342.902902 236.98008 
L 345.153528 233.648115 
L 347.328903 230.023958 
L 349.339249 226.23534 
L 351.17142 222.308993 
L 352.855156 218.165523 
L 354.323187 213.958061 
L 355.565089 209.734395 
L 356.593338 205.447055 
L 357.364919 201.272273 
L 357.864852 197.37385 
L 358.106735 193.808853 
L 358.135167 192.244982 
L 357.490015 192.211092 
L 347.104482 192.211096 
L 346.779307 192.387498 
L 346.420258 195.933554 
L 345.946722 198.662228 
L 345.305105 201.287549 
L 344.493117 203.802869 
L 343.508465 206.201543 
L 342.34886 208.476923 
L 341.012009 210.622363 
L 339.495621 212.631215 
L 337.797405 214.496832 
L 335.91507 216.212568 
L 333.846324 217.771775 
L 331.588876 219.167808 
L 329.140434 220.394018 
L 326.498708 221.443759 
L 323.661406 222.310384 
L 320.626236 222.987246 
L 317.390908 223.467698 
L 313.95313 223.745093 
L 310.951132 223.762322 
L 307.530172 223.561118 
L 304.387382 223.157291 
L 301.504899 222.567189 
L 298.81582 221.78971 
L 296.360857 220.849655 
L 294.08116 219.738202 
L 291.971392 218.459731 
L 290.026221 217.01862 
L 288.240313 215.419247 
L 286.577837 213.630104 
L 285.042205 211.64674 
L 283.636334 209.465076 
L 282.340896 207.036619 
L 281.166174 204.349372 
L 280.121488 201.392001 
L 279.215058 198.153949 
L 278.443313 194.568971 
L 277.811909 190.560264 
L 277.340108 186.103253 
L 277.041558 181.109896 
L 276.936146 175.551488 
L 277.042985 169.260374 
L 277.392156 162.050981 
L 278.032077 153.568811 
L 279.054541 143.108272 
L 280.761476 128.162847 
L 284.029614 99.767697 
L 285.142873 87.916441 
L 285.85717 77.980404 
L 286.267883 69.222009 
L 286.625152 61.576651 
L 358.134448 61.842977 
L 357.730023 23.965155 
L 228.847116 23.467878 
L 201.208355 23.609333 
L 181.592587 23.910755 
L 165.577201 24.373002 
L 152.535063 24.97828 
L 141.943461 25.69929 
L 133.370493 26.502096 
L 126.4627 27.348731 
L 120.18163 28.329833 
L 114.485064 29.454297 
L 109.946853 30.562796 
L 105.795542 31.793823 
L 102.002847 33.153338 
L 98.540483 34.647297 
L 95.380165 36.281659 
L 92.890286 37.798806 
L 90.583726 39.427237 
L 88.100671 41.472726 
L 85.814605 43.680749 
L 83.697244 46.057263 
L 81.720303 48.608227 
L 79.596602 51.744869 
L 77.577142 55.126038 
L 75.377281 59.233215 
L 72.707476 64.707138 
L 68.38028 74.200201 
L 62.160318 87.772537 
L 57.899915 96.501347 
L 57.899915 96.501347 
" style="fill:none;stroke:#1f77b4;stroke-linecap:square;stroke-width:1.5;"/>
   </g>
   <g id="line2d_15">
    <path clip-path="url(#p1e1816346f)" d="M 189.34602 52.395528 
L 183.353144 54.224365 
L 177.615145 56.208236 
L 171.950928 58.406445 
L 166.557749 60.737797 
L 161.256922 63.273799 
L 156.236939 65.917317 
L 151.323142 68.75233 
L 146.524966 71.777969 
L 141.851522 74.992548 
L 137.311565 78.39354 
L 133.068015 81.84647 
L 128.963539 85.465841 
L 125.004925 89.247153 
L 121.198573 93.185171 
L 117.550482 97.273936 
L 114.066228 101.50677 
L 110.750954 105.876291 
L 107.609355 110.374427 
L 104.539369 115.165655 
L 101.664907 120.075308 
L 98.989608 125.092175 
L 96.516552 130.20436 
L 94.248253 135.399315 
L 92.186652 140.663883 
L 90.270783 146.175211 
L 88.578982 151.730652 
L 87.111466 157.313834 
L 85.867804 162.907909 
L 84.846916 168.495621 
L 84.023426 174.250583 
L 83.433908 179.960121 
L 83.075069 185.604231 
L 82.94294 191.162782 
L 83.0329 196.615601 
L 83.339698 201.942568 
L 83.857483 207.123712 
L 84.579831 212.1393 
L 85.49978 216.969939 
L 86.60986 221.596658 
L 87.856207 225.857974 
L 89.265246 229.895378 
L 90.829073 233.693361 
L 92.478145 237.119285 
L 94.256216 240.295508 
L 96.085608 243.110604 
L 97.946991 245.582078 
L 99.899609 247.810236 
L 101.856987 249.716043 
L 103.886617 251.383475 
L 105.897463 252.754673 
L 107.964025 253.896472 
L 109.991821 254.771789 
L 112.061184 255.429833 
L 114.167434 255.868111 
L 116.30592 256.084629 
L 118.47203 256.077893 
L 120.661201 255.846926 
L 122.868931 255.391265 
L 125.090789 254.71097 
L 127.419606 253.762242 
L 129.75423 252.570843 
L 132.187219 251.073815 
L 134.616203 249.318414 
L 137.132706 247.222595 
L 139.729837 244.759755 
L 142.304737 242.011449 
L 144.945573 238.867729 
L 147.642944 235.306374 
L 150.386422 231.307371 
L 153.164609 226.853493 
L 155.965207 221.930912 
L 158.775129 216.529857 
L 161.580631 210.645299 
L 164.367479 204.277653 
L 167.121152 197.433492 
L 169.898418 189.925302 
L 172.60616 181.963064 
L 175.293625 173.367567 
L 177.935069 164.170364 
L 180.560251 154.204766 
L 183.131879 143.543151 
L 185.614969 132.295156 
L 188.100615 119.984413 
L 190.592883 106.491719 
L 193.281197 90.667677 
L 198.811693 57.625092 
L 200.047513 51.891464 
L 201.066242 48.162517 
L 201.9303 45.781849 
L 202.708539 44.251147 
L 203.398762 43.353559 
L 204.018408 42.886373 
L 204.610967 42.711259 
L 205.199658 42.77357 
L 205.837893 43.077501 
L 206.559418 43.679935 
L 207.4342 44.723963 
L 208.484883 46.351452 
L 209.773799 48.785305 
L 211.380451 52.320217 
L 213.488799 57.538016 
L 216.348213 65.253253 
L 220.97917 78.472187 
L 232.792352 112.365389 
L 238.474195 127.885081 
L 243.69532 141.507297 
L 248.600436 153.699658 
L 253.334036 164.883557 
L 257.919411 175.154159 
L 262.31376 184.462301 
L 266.565197 192.955984 
L 270.647716 200.624558 
L 274.540836 207.477876 
L 278.308887 213.668266 
L 281.858984 219.085905 
L 285.260652 223.882421 
L 288.505137 228.07933 
L 291.585964 231.703856 
L 294.498779 234.787646 
L 297.173878 237.306303 
L 299.683208 239.376268 
L 302.027969 241.034456 
L 304.210633 242.318072 
L 306.29114 243.286734 
L 308.211842 243.937873 
L 309.977986 244.307928 
L 311.643013 244.431984 
L 313.204445 244.323626 
L 314.660176 243.997343 
L 316.008464 243.468386 
L 317.282726 242.728931 
L 318.471921 241.780684 
L 319.592693 240.595082 
L 320.598917 239.2055 
L 321.49953 237.583909 
L 322.271764 235.738078 
L 322.892702 233.683237 
L 323.339615 231.442367 
L 323.590315 229.046147 
L 323.625089 226.581716 
L 323.437305 224.090716 
L 323.031853 221.661656 
L 322.417351 219.328367 
L 321.620907 217.1608 
L 320.641727 215.132779 
L 319.489526 213.259032 
L 318.174387 211.548363 
L 316.706706 210.003696 
L 315.063574 208.596214 
L 313.211997 207.30388 
L 311.110604 206.1091 
L 308.629151 204.959373 
L 305.527805 203.779068 
L 300.612214 202.181714 
L 294.703301 200.207637 
L 291.291077 198.828568 
L 288.412405 197.430002 
L 285.799851 195.913302 
L 283.417282 194.274134 
L 281.179674 192.464569 
L 279.094519 190.495452 
L 277.124458 188.33434 
L 275.236937 185.932993 
L 273.444587 183.286041 
L 271.760122 180.39163 
L 270.196273 177.251482 
L 268.765711 173.870892 
L 267.480946 170.258677 
L 266.354235 166.42706 
L 265.397464 162.391509 
L 264.622031 158.170525 
L 264.038718 153.785379 
L 263.657558 149.259811 
L 263.487697 144.619686 
L 263.537251 139.892629 
L 263.813167 135.107617 
L 264.307539 130.399284 
L 265.027867 125.692594 
L 265.953059 121.119485 
L 267.069091 116.703499 
L 268.393972 112.364314 
L 269.887705 108.222356 
L 271.575409 104.196227 
L 273.405466 100.396025 
L 275.410006 96.740871 
L 277.581832 93.245585 
L 279.912341 89.923239 
L 282.329369 86.859293 
L 284.877315 83.979154 
L 287.612414 81.224713 
L 290.458474 78.675385 
L 293.400039 76.333991 
L 296.49487 74.151716 
L 299.728825 72.142362 
L 303.083622 70.317174 
L 306.613236 68.650632 
L 310.288508 67.162516 
L 314.145308 65.843804 
L 318.198829 64.697862 
L 322.429904 63.735381 
L 326.953632 62.937137 
L 332.068664 62.26896 
L 339.706489 61.308568 
L 340.302774 61.015117 
L 340.375729 60.777978 
L 340.200598 60.515796 
L 339.623786 60.120554 
L 338.249176 59.48743 
L 335.499387 58.493971 
L 330.778865 57.04204 
L 323.98667 55.194811 
L 315.934619 53.237871 
L 307.351808 51.381463 
L 298.709015 49.73791 
L 290.10416 48.326387 
L 281.646213 47.162672 
L 273.364722 46.245712 
L 265.227205 45.568089 
L 257.336202 45.132152 
L 249.59128 44.926339 
L 242.052471 44.948019 
L 234.770752 45.187857 
L 227.593574 45.646208 
L 220.551397 46.322199 
L 213.867892 47.183084 
L 207.369562 48.237109 
L 200.878139 49.516737 
L 194.607019 50.981873 
L 189.34602 52.395528 
L 189.34602 52.395528 
" style="fill:none;stroke:#ff7f0e;stroke-linecap:square;stroke-width:2;"/>
   </g>
   <g id="line2d_16">
    <path clip-path="url(#p1e1816346f)" d="M 98.866252 55.764344 
L 93.55159 57.119921 
L 89.467699 58.378018 
L 86.224956 59.60221 
L 83.859978 60.713767 
L 82.070403 61.779751 
L 80.766348 62.795918 
L 79.86425 63.75779 
L 79.246898 64.743863 
L 78.926261 65.670111 
L 78.834955 66.618756 
L 78.967182 67.590792 
L 79.358777 68.679037 
L 79.999504 69.797572 
L 80.963099 71.044946 
L 82.405505 72.532227 
L 84.440592 74.282713 
L 87.175917 76.324364 
L 90.882517 78.805645 
L 96.30308 82.153191 
L 110.1876 90.352453 
L 118.289825 95.314656 
L 124.433771 99.326679 
L 129.697637 103.026315 
L 134.276497 106.52119 
L 138.172437 109.773398 
L 141.602537 112.927754 
L 144.575409 115.966998 
L 147.111368 118.875868 
L 149.239363 121.64113 
L 151.110788 124.438986 
L 152.614761 127.075763 
L 153.875586 129.733217 
L 154.886355 132.407429 
L 155.596442 134.902119 
L 156.083561 137.40452 
L 156.346129 139.911319 
L 156.383828 142.419185 
L 156.197588 144.92478 
L 155.789567 147.424782 
L 155.163122 149.915901 
L 154.322778 152.394893 
L 153.18509 155.047375 
L 151.814367 157.678253 
L 150.098355 160.468847 
L 148.139925 163.225989 
L 145.801078 166.125407 
L 143.055953 169.153937 
L 139.886371 172.296506 
L 136.28412 175.536216 
L 132.25331 178.854528 
L 127.596975 182.389563 
L 122.3325 186.102342 
L 116.068587 190.238801 
L 108.269961 195.110607 
L 87.836503 207.730268 
L 83.73485 210.608018 
L 80.759003 212.953768 
L 78.491383 215.021082 
L 76.827855 216.838143 
L 75.661616 218.426731 
L 74.84677 219.894256 
L 74.333784 221.249276 
L 74.063626 222.587317 
L 74.034656 223.911275 
L 74.243676 225.223828 
L 74.685989 226.527407 
L 75.355465 227.824152 
L 76.311498 229.201859 
L 77.589159 230.661384 
L 79.318622 232.289163 
L 81.573417 234.08524 
L 84.416837 236.04843 
L 87.894856 238.174512 
L 92.187999 240.537418 
L 97.486527 243.194597 
L 103.768289 246.089194 
L 110.723667 249.043237 
L 117.420085 251.651086 
L 123.339584 253.728411 
L 128.271972 255.236355 
L 132.410736 256.275286 
L 135.816713 256.903832 
L 138.570601 257.196088 
L 140.868435 257.230531 
L 142.866911 257.044452 
L 144.594429 256.659798 
L 146.079823 256.101146 
L 147.35123 255.39491 
L 148.503946 254.507756 
L 149.543032 253.434541 
L 150.529297 252.085457 
L 151.402353 250.517017 
L 152.255516 248.500474 
L 153.028721 246.074162 
L 153.751984 243.044117 
L 154.44234 239.143751 
L 155.136302 233.832209 
L 155.918844 225.937458 
L 158.683241 196.207165 
L 160.014278 185.221199 
L 161.509606 174.733448 
L 163.166656 164.652011 
L 165.057563 154.50814 
L 167.162757 144.424392 
L 169.522919 134.224337 
L 172.108904 124.054721 
L 174.875785 114.074432 
L 177.842552 104.199059 
L 180.934201 94.663159 
L 184.13049 85.514014 
L 187.246877 77.253981 
L 190.067136 70.382219 
L 192.4614 65.104015 
L 194.38821 61.362083 
L 195.945719 58.795939 
L 197.219728 57.098169 
L 198.313112 55.986492 
L 199.304262 55.276962 
L 200.257753 54.856147 
L 201.233498 54.661134 
L 202.337013 54.669466 
L 203.70037 54.912675 
L 205.666746 55.513072 
L 210.932407 57.46242 
L 216.048681 59.203324 
L 221.89423 60.942224 
L 234.407 64.591742 
L 237.931726 65.900447 
L 240.596638 67.117572 
L 242.712359 68.317557 
L 244.466689 69.567215 
L 245.883115 70.851699 
L 246.994966 72.150184 
L 247.921413 73.579765 
L 248.622589 75.072473 
L 249.140689 76.701518 
L 249.471646 78.474397 
L 249.615773 80.498054 
L 249.544058 82.80342 
L 249.229884 85.423173 
L 248.621223 88.520118 
L 247.670159 92.161775 
L 246.237915 96.726021 
L 244.000135 103.045277 
L 234.855718 128.172659 
L 232.712291 135.034418 
L 230.943239 141.4439 
L 229.549026 147.309148 
L 228.414484 153.042349 
L 227.546033 158.609257 
L 226.940782 163.980782 
L 226.588129 169.132868 
L 226.471343 174.046248 
L 226.580011 178.950918 
L 226.900625 183.588546 
L 227.439355 188.191695 
L 228.200533 192.747356 
L 229.186637 197.242571 
L 230.328903 201.433786 
L 231.672626 205.548413 
L 233.215377 209.575827 
L 234.953338 213.505613 
L 236.881353 217.327611 
L 238.993009 221.031955 
L 241.280708 224.609116 
L 243.735766 228.049937 
L 246.348505 231.345676 
L 249.265781 234.657963 
L 252.333618 237.790212 
L 255.537853 240.733926 
L 258.863665 243.48131 
L 262.295731 246.025321 
L 265.818377 248.359711 
L 269.415731 250.479065 
L 273.071865 252.378849 
L 276.770938 254.055438 
L 280.497322 255.506153 
L 284.235725 256.729294 
L 287.971302 257.724163 
L 291.689748 258.491085 
L 295.377391 259.031428 
L 299.021255 259.347611 
L 302.609127 259.443115 
L 306.129595 259.322478 
L 309.572081 258.991292 
L 312.92686 258.456187 
L 316.353715 257.681043 
L 319.66424 256.698543 
L 322.850126 255.519969 
L 325.904045 254.157715 
L 328.961642 252.544387 
L 331.860329 250.760098 
L 334.594707 248.822633 
L 337.278151 246.649039 
L 339.772039 244.350387 
L 342.172866 241.83881 
L 344.449774 239.128947 
L 346.490782 236.359163 
L 348.363682 233.444397 
L 349.976448 230.534551 
L 351.376274 227.551055 
L 352.49205 224.648635 
L 353.32293 221.863451 
L 353.852687 219.327444 
L 354.112836 217.049887 
L 354.129829 214.948419 
L 353.918509 213.117611 
L 353.508864 211.547658 
L 352.929827 210.224128 
L 352.209186 209.129199 
L 351.325454 208.200316 
L 350.281098 207.440215 
L 349.079196 206.849929 
L 347.723496 206.428788 
L 346.139402 206.166028 
L 344.222848 206.083596 
L 342.030546 206.217079 
L 339.448193 206.599505 
L 336.335611 207.293009 
L 332.532179 208.382495 
L 327.869908 209.960517 
L 321.54545 212.352719 
L 301.508151 220.103035 
L 296.805348 221.598083 
L 293.160937 222.535701 
L 290.178521 223.079718 
L 287.793909 223.293276 
L 285.929111 223.24931 
L 284.444639 223.008032 
L 283.238227 222.596546 
L 282.281761 222.040776 
L 281.546006 221.366822 
L 280.955458 220.51695 
L 280.54139 219.528217 
L 280.278693 218.303014 
L 280.197999 216.819932 
L 280.328649 214.999783 
L 280.727281 212.684246 
L 281.507193 209.555025 
L 284.746413 197.488778 
L 285.050821 195.056239 
L 285.091845 193.02828 
L 284.915449 191.249566 
L 284.540692 189.643395 
L 283.967468 188.143853 
L 283.176832 186.694783 
L 282.099239 185.202758 
L 280.637693 183.583785 
L 278.343829 181.415602 
L 274.989768 178.223327 
L 273.534127 176.521003 
L 272.45949 174.923462 
L 271.67634 173.354319 
L 271.13811 171.776801 
L 270.812528 170.143435 
L 270.68866 168.393182 
L 270.781168 166.449886 
L 271.116784 164.300517 
L 271.715682 161.935614 
L 272.655554 159.173447 
L 273.982233 155.989555 
L 275.907856 151.985434 
L 278.999909 146.134732 
L 283.555523 137.48596 
L 285.466054 133.356277 
L 286.768925 130.016073 
L 287.650688 127.154602 
L 288.214723 124.570705 
L 288.498083 122.250569 
L 288.544748 120.095534 
L 288.37068 118.016681 
L 287.983605 116.010124 
L 287.371351 113.996345 
L 286.500899 111.902462 
L 285.288095 109.589531 
L 283.547919 106.78526 
L 278.651299 99.142448 
L 277.546785 96.870552 
L 276.794828 94.825902 
L 276.313904 92.873848 
L 276.080719 91.023908 
L 276.068115 89.127826 
L 276.275152 87.26934 
L 276.703989 85.373974 
L 277.390905 83.362703 
L 278.320235 81.325202 
L 279.537966 79.185697 
L 281.059184 76.956251 
L 282.96165 74.569715 
L 285.262845 72.055517 
L 287.956567 69.456942 
L 291.005577 66.833356 
L 294.335278 64.261543 
L 297.920374 61.776225 
L 301.417513 59.615442 
L 304.65683 57.86592 
L 307.352791 56.653184 
L 309.311723 55.996371 
L 310.65027 55.759077 
L 311.506322 55.811738 
L 312.030226 56.054079 
L 312.32541 56.429173 
L 312.464424 56.988234 
L 312.422423 57.842546 
L 312.088729 59.347063 
L 311.376617 62.463038 
L 311.318491 63.802394 
L 311.491582 64.844288 
L 311.858919 65.705769 
L 312.402476 66.425739 
L 313.170702 67.067801 
L 314.185482 67.619142 
L 315.532699 68.086842 
L 317.268678 68.443142 
L 319.44887 68.658524 
L 322.23992 68.700396 
L 325.60238 68.524304 
L 329.712679 68.080875 
L 334.620261 67.316717 
L 340.148947 66.223399 
L 346.206603 64.792734 
L 352.453466 63.08542 
L 358.50071 61.203615 
L 363.976932 59.275896 
L 368.756812 57.369617 
L 372.77274 55.537703 
L 376.009378 53.819165 
L 378.393487 52.31208 
L 380.135535 50.959016 
L 381.322262 49.766113 
L 382.0524 48.733797 
L 382.447539 47.792099 
L 382.55446 47.004759 
L 382.438046 46.238254 
L 382.090029 45.494873 
L 381.502796 44.776796 
L 380.588677 44.029819 
L 379.272274 43.264105 
L 377.470604 42.491385 
L 375.093607 41.724983 
L 372.045074 40.97978 
L 367.993849 40.235306 
L 362.992961 39.556597 
L 356.934335 38.963465 
L 349.366326 38.457267 
L 340.463246 38.090393 
L 329.717032 37.878149 
L 316.957889 37.860903 
L 302.581859 38.065835 
L 286.099687 38.521986 
L 267.552163 39.256659 
L 247.102428 40.289157 
L 225.061678 41.629647 
L 203.085357 43.189474 
L 182.25114 44.884935 
L 162.952698 46.675578 
L 146.47283 48.419184 
L 132.283987 50.137445 
L 120.724382 51.750055 
L 111.153531 53.299435 
L 103.379739 54.774774 
L 98.866252 55.764344 
L 98.866252 55.764344 
" style="fill:none;stroke:#2ca02c;stroke-linecap:square;stroke-width:2;"/>
   </g>
   <g id="line2d_17">
    <path clip-path="url(#p1e1816346f)" d="M 71.993573 87.649612 
L 71.649412 91.556673 
L 71.2213 94.101409 
L 70.844978 95.240991 
L 70.742048 95.307216 
L 70.715579 95.258059 
L 70.71599 94.843079 
L 70.949032 93.708283 
L 71.5782 91.822502 
L 72.570082 89.584747 
L 73.863026 87.211813 
L 75.541512 84.622247 
L 77.405309 82.153736 
L 79.583986 79.641369 
L 82.062178 77.14369 
L 84.817194 74.713657 
L 87.509772 72.623032 
L 90.379256 70.654023 
L 93.399388 68.831036 
L 96.542627 67.173901 
L 99.780919 65.698112 
L 103.086374 64.415214 
L 106.431825 63.333271 
L 109.791258 62.457409 
L 113.51054 61.729213 
L 116.820805 61.295265 
L 120.074032 61.070646 
L 123.250787 61.054111 
L 126.333155 61.243986 
L 129.304595 61.638429 
L 132.149758 62.235572 
L 134.854335 63.033554 
L 137.404927 64.030447 
L 139.788969 65.224088 
L 141.75879 66.448156 
L 143.580072 67.823251 
L 145.24578 69.346362 
L 146.749617 71.013637 
L 148.086155 72.820216 
L 149.250994 74.760082 
L 150.240939 76.825948 
L 151.054172 79.009178 
L 151.690426 81.299766 
L 152.196528 83.990822 
L 152.485333 86.785295 
L 152.56474 89.663365 
L 152.420906 92.933429 
L 152.051838 96.250062 
L 151.414443 99.915224 
L 150.485326 103.887699 
L 149.264921 108.105494 
L 147.674647 112.792648 
L 145.439682 118.640438 
L 140.641322 130.970339 
L 139.463126 134.737858 
L 138.57237 138.304527 
L 137.713308 142.749412 
L 136.224512 150.660542 
L 135.316961 154.157661 
L 134.218218 157.491374 
L 132.955091 160.608468 
L 131.477808 163.665795 
L 129.706007 166.802892 
L 127.674305 169.936757 
L 125.214932 173.305085 
L 121.597664 177.829235 
L 118.389782 181.949717 
L 116.667044 184.536316 
L 115.115615 187.287848 
L 110.262103 196.333215 
L 108.530731 198.830452 
L 106.709756 201.050865 
L 104.761038 203.064621 
L 102.644957 204.929204 
L 100.034774 206.9171 
L 95.733247 210.144769 
L 94.48124 211.408214 
L 93.493525 212.724103 
L 92.614478 214.281923 
L 91.647389 216.502853 
L 89.567587 221.46606 
L 88.628356 223.056909 
L 87.678942 224.251408 
L 86.626549 225.211254 
L 85.493677 225.946267 
L 83.95364 226.655636 
L 81.787824 227.634381 
L 81.095033 228.189807 
L 80.647764 228.80851 
L 80.360655 229.60335 
L 80.264334 230.605251 
L 80.388078 231.836622 
L 80.758697 233.30967 
L 81.4717 235.192936 
L 82.529576 237.349518 
L 83.947433 239.747695 
L 85.730449 242.34039 
L 87.872711 245.067476 
L 90.356499 247.85894 
L 92.908152 250.40941 
L 95.690478 252.889966 
L 98.664499 255.241991 
L 101.784781 257.411069 
L 104.705914 259.18386 
L 107.665874 260.736229 
L 110.623238 262.045512 
L 113.536845 263.096726 
L 116.36714 263.882917 
L 119.077518 264.405136 
L 121.635576 264.672093 
L 124.014237 264.699465 
L 126.192684 264.508942 
L 128.157055 264.12703 
L 130.063081 263.521709 
L 131.7042 262.763704 
L 133.207262 261.813316 
L 134.530957 260.698559 
L 135.732403 259.37857 
L 136.958133 257.679562 
L 138.842038 255.034946 
L 139.959608 253.892738 
L 141.499081 252.658612 
L 147.920339 247.831218 
L 149.718474 246.064602 
L 151.295088 244.193817 
L 152.615979 242.276052 
L 153.756238 240.217682 
L 154.700102 238.049859 
L 155.498189 235.643906 
L 156.17237 232.861113 
L 156.798026 229.240248 
L 158.036898 221.719989 
L 158.897079 218.22261 
L 160.08426 214.38344 
L 164.350463 201.276294 
L 165.336291 197.217331 
L 166.139236 192.947334 
L 166.738207 188.51207 
L 167.164623 183.695502 
L 167.495438 177.185394 
L 168.085484 164.454625 
L 168.594489 159.028373 
L 169.339341 153.498553 
L 170.511844 146.569715 
L 173.139497 131.386763 
L 174.118316 124.121906 
L 174.867905 116.806108 
L 175.455446 108.787674 
L 176.008044 97.796487 
L 176.721753 83.877092 
L 177.265634 77.695044 
L 177.882791 73.119713 
L 178.555573 69.645724 
L 179.358316 66.666055 
L 180.206815 64.370703 
L 181.062654 62.651832 
L 181.977225 61.292547 
L 182.932083 60.275285 
L 183.907214 59.574521 
L 184.882468 59.157885 
L 185.838978 58.987541 
L 186.842029 59.033509 
L 187.938553 59.318668 
L 189.145089 59.875471 
L 191.177765 61.126584 
L 192.340344 61.70071 
L 193.249909 61.917953 
L 194.232021 61.927154 
L 195.60735 61.692926 
L 202.272105 60.242938 
L 204.163284 60.169371 
L 205.942438 60.320859 
L 207.718636 60.703807 
L 210.934361 61.473472 
L 212.363355 61.496519 
L 214.344891 61.276101 
L 221.120734 60.361425 
L 223.216732 60.358841 
L 225.000662 60.571138 
L 226.91888 61.037822 
L 228.922057 61.476881 
L 230.386628 61.541911 
L 232.134189 61.385809 
L 234.802982 60.901785 
L 239.773308 59.975257 
L 241.36419 59.919723 
L 242.436715 60.102327 
L 243.157083 60.436395 
L 243.697187 60.913493 
L 244.15 61.629796 
L 244.49499 62.64715 
L 244.732551 64.132081 
L 244.847025 66.468666 
L 244.788677 70.733348 
L 244.360808 81.490014 
L 243.879193 88.977993 
L 243.305123 94.54613 
L 242.533296 99.887009 
L 241.085611 108.024613 
L 240.12129 114.043636 
L 239.573824 118.910502 
L 239.187298 124.485184 
L 238.386047 137.500529 
L 237.795461 142.402113 
L 236.940399 147.555633 
L 234.708076 160.228462 
L 234.269813 164.495828 
L 234.039025 169.031775 
L 233.98656 174.930659 
L 233.899691 183.228279 
L 233.619747 187.250834 
L 233.113304 191.175777 
L 232.066525 197.121029 
L 231.347935 201.76117 
L 231.025237 205.208865 
L 230.929093 208.514837 
L 231.053031 211.847688 
L 231.392989 215.151381 
L 231.985989 218.66175 
L 232.778654 222.040406 
L 233.830351 225.543778 
L 235.15657 229.135 
L 236.609218 232.43902 
L 238.301012 235.742158 
L 240.23156 239.004732 
L 242.169472 241.87263 
L 244.29081 244.645045 
L 246.586526 247.29355 
L 249.044896 249.791725 
L 251.65166 252.115975 
L 254.390197 254.24626 
L 257.241772 256.166694 
L 260.185813 257.866021 
L 263.200251 259.337903 
L 266.261901 260.581053 
L 269.346869 261.599175 
L 272.431013 262.400726 
L 275.827791 263.05304 
L 279.162265 263.476876 
L 282.722654 263.712228 
L 286.437484 263.740211 
L 290.497478 263.544501 
L 294.967689 263.09709 
L 300.345577 262.322709 
L 312.3503 260.288062 
L 314.621209 259.647886 
L 316.779932 258.802319 
L 319.117249 257.644804 
L 321.922758 256.000864 
L 325.469977 253.648386 
L 329.84056 250.466133 
L 334.031828 247.153604 
L 336.800354 244.712739 
L 338.545836 242.899998 
L 339.915862 241.163837 
L 341.49386 238.766352 
L 352.416854 220.971216 
L 353.285737 219.019998 
L 353.718595 217.529444 
L 353.885473 216.124923 
L 354.193575 210.774396 
L 354.721692 208.665594 
L 355.607172 206.088972 
L 357.055918 202.623902 
L 360.099814 195.538251 
L 360.298029 194.495299 
L 360.20193 193.980832 
L 359.95997 193.757342 
L 359.558144 193.698455 
L 358.890345 193.841013 
L 357.72711 194.341524 
L 355.835977 195.413845 
L 352.485324 197.603116 
L 346.183833 202.03028 
L 330.847807 212.851689 
L 323.971161 217.421887 
L 318.647592 220.718155 
L 314.306256 223.153114 
L 311.146372 224.687494 
L 308.782665 225.605729 
L 307.084212 226.042255 
L 305.9102 226.130328 
L 305.12873 225.987641 
L 304.581955 225.671353 
L 304.227615 225.222211 
L 303.991843 224.566979 
L 303.853396 223.432658 
L 303.646894 222.021443 
L 303.351098 221.514649 
L 302.943516 221.230989 
L 302.3306 221.0778 
L 301.348581 221.078263 
L 299.371676 221.353202 
L 296.651365 221.692003 
L 295.351443 221.635856 
L 294.469408 221.389803 
L 293.83308 220.992557 
L 293.338775 220.416299 
L 292.91599 219.545936 
L 291.953662 217.312205 
L 291.39227 216.720763 
L 290.612223 216.244876 
L 289.403206 215.807777 
L 286.819849 214.934048 
L 286.034857 214.405243 
L 285.50463 213.794957 
L 285.11884 213.013521 
L 284.838335 211.915629 
L 284.16108 208.738491 
L 283.666368 207.844372 
L 282.926288 206.992506 
L 280.452321 204.456686 
L 280.04276 203.570758 
L 279.802699 202.506681 
L 279.728372 201.086652 
L 279.651266 196.898647 
L 279.321305 195.677625 
L 278.73481 194.409064 
L 277.39823 191.70166 
L 277.116277 190.507211 
L 277.035459 189.187616 
L 277.169262 187.480477 
L 277.746267 182.196798 
L 277.582312 180.706726 
L 277.147969 179.006748 
L 276.425276 176.247691 
L 276.295708 174.783638 
L 276.379951 173.197899 
L 276.722395 171.197182 
L 277.829662 165.551142 
L 277.848136 163.866027 
L 277.633927 162.060547 
L 277.100843 158.228868 
L 277.14909 156.483686 
L 277.430972 154.619463 
L 278.067119 152.071959 
L 279.177591 147.718024 
L 279.402031 145.854953 
L 279.390497 144.085385 
L 279.110795 141.48743 
L 278.941153 139.144605 
L 279.033655 137.275812 
L 279.36486 135.292016 
L 280.030748 132.776535 
L 281.471042 127.587146 
L 281.717908 125.72898 
L 281.731437 123.957899 
L 281.495531 121.463085 
L 281.306641 118.769717 
L 281.408528 116.806934 
L 281.737851 114.822848 
L 282.400818 112.301581 
L 283.992317 106.614973 
L 284.211038 104.817672 
L 284.196831 103.104778 
L 283.926383 100.807911 
L 283.615897 97.90794 
L 283.641244 95.986538 
L 283.886087 94.047505 
L 284.404895 91.754607 
L 286.222962 84.565321 
L 286.27829 82.938984 
L 286.105469 81.303471 
L 285.170444 75.044268 
L 285.257021 73.0303 
L 285.592131 70.73748 
L 286.231664 68.003142 
L 287.4278 63.989647 
L 288.115186 62.216828 
L 288.487333 61.809655 
L 288.956932 61.633385 
L 289.865215 61.575301 
L 299.435949 61.480239 
L 302.839589 61.508564 
L 304.515171 61.739828 
L 306.118303 61.935571 
L 308.130659 61.893211 
L 318.311266 61.425166 
L 319.92396 61.640555 
L 322.475581 62.132317 
L 324.56697 61.977003 
L 331.590346 61.3714 
L 334.251084 61.37626 
L 335.884428 61.582001 
L 336.787646 61.900909 
L 337.811847 62.340732 
L 338.822565 62.267183 
L 347.295543 61.281048 
L 350.022201 61.266746 
L 351.86542 61.465323 
L 352.944452 61.782314 
L 353.446758 62.136539 
L 353.547681 62.440656 
L 353.405012 62.651991 
L 353.307912 62.616683 
L 353.30284 62.574335 
L 353.418825 62.276814 
L 353.978003 61.566249 
L 355.37105 60.217942 
L 360.715975 55.26863 
L 361.682985 53.983675 
L 362.162896 53.002452 
L 362.339527 52.142585 
L 362.266449 51.398969 
L 361.966192 50.684958 
L 361.442726 49.999035 
L 360.522938 49.193257 
L 359.106712 48.273091 
L 355.855702 46.516509 
L 353.763802 45.253777 
L 352.695247 44.378422 
L 352.077841 43.619925 
L 351.767378 42.911186 
L 351.703271 42.263966 
L 351.847533 41.59213 
L 352.208471 40.897216 
L 352.888809 40.077867 
L 353.986114 39.129888 
L 355.583056 38.054284 
L 357.929801 36.751858 
L 361.725965 34.934863 
L 367.292581 32.285178 
L 368.632904 31.418548 
L 369.175962 30.855723 
L 369.326684 30.403 
L 369.200585 30.046743 
L 368.822663 29.709331 
L 368.008112 29.328588 
L 366.519026 28.915966 
L 364.05081 28.48244 
L 359.733718 27.989453 
L 353.31654 27.495613 
L 342.546069 26.911928 
L 324.488222 26.180198 
L 289.595903 25.018235 
L 243.440393 23.688851 
L 214.420956 23.061996 
L 193.829026 22.820063 
L 177.0649 22.82932 
L 162.590059 23.060879 
L 150.334127 23.489292 
L 140.141376 24.071404 
L 131.812265 24.752847 
L 124.064403 25.607593 
L 117.901722 26.48602 
L 112.188911 27.504629 
L 106.928972 28.667413 
L 102.120373 29.976965 
L 98.453879 31.181209 
L 95.091266 32.487953 
L 92.025145 33.896196 
L 89.246435 35.404124 
L 86.744515 37.009099 
L 84.507386 38.70766 
L 82.521845 40.49553 
L 80.773667 42.367627 
L 79.247783 44.318091 
L 77.928472 46.340319 
L 76.799543 48.427 
L 75.672931 51.004838 
L 74.768117 53.649093 
L 73.954963 56.796627 
L 73.361094 59.985856 
L 72.897155 63.645541 
L 72.554768 68.178821 
L 72.342597 74.295248 
L 71.993573 87.649612 
L 71.993573 87.649612 
" style="fill:none;stroke:#d62728;stroke-linecap:square;stroke-width:2;"/>
   </g>
   <g id="line2d_18">
    <path clip-path="url(#p1e1816346f)" d="M 63.186825 94.570244 
L 63.624937 96.158068 
L 64.088853 97.135715 
L 64.63397 97.853277 
L 65.242294 98.317251 
L 65.896632 98.539836 
L 66.581146 98.538335 
L 67.281778 98.33438 
L 68.162191 97.833124 
L 69.201778 96.941986 
L 70.365061 95.626055 
L 71.905904 93.508301 
L 75.551731 88.326525 
L 78.001491 85.480631 
L 79.605148 83.416902 
L 84.200548 77.102876 
L 85.907347 75.305809 
L 87.625818 73.792035 
L 89.752047 72.230623 
L 92.022028 70.836637 
L 94.888284 69.337964 
L 99.334468 67.303845 
L 104.799229 65.030712 
L 108.629468 63.67233 
L 112.395518 62.584644 
L 116.319011 61.690504 
L 120.73682 60.9305 
L 124.996106 60.414013 
L 129.433316 60.09174 
L 133.876319 60.007657 
L 137.617036 60.163871 
L 140.611761 60.490571 
L 143.334005 61.011521 
L 145.350857 61.60297 
L 147.111176 62.342684 
L 148.598803 63.232853 
L 149.58806 64.052846 
L 150.40005 64.966642 
L 151.040092 65.97078 
L 151.517086 67.060318 
L 151.902648 68.532474 
L 152.08155 70.112584 
L 152.070891 72.12542 
L 151.826695 74.589669 
L 151.162448 78.577095 
L 149.842091 86.250192 
L 149.407589 90.308309 
L 149.011103 96.798398 
L 148.626464 100.952268 
L 148.030974 104.971668 
L 146.955192 110.557056 
L 143.853957 125.01489 
L 142.333062 130.987538 
L 140.422271 137.567548 
L 138.590169 143.121365 
L 136.502071 148.691891 
L 132.471068 158.759488 
L 130.68323 162.589242 
L 128.405133 166.862641 
L 124.596549 174.065826 
L 122.62057 177.538563 
L 120.760846 180.324922 
L 116.646528 186.312592 
L 113.686282 190.762809 
L 111.923264 192.941677 
L 107.991608 197.607054 
L 103.990512 202.779704 
L 101.850025 204.897639 
L 100.000981 206.847504 
L 98.411788 208.874953 
L 96.310074 211.540369 
L 94.860991 212.941244 
L 92.812526 214.901526 
L 91.689064 216.317747 
L 88.753202 220.339942 
L 86.790118 222.344456 
L 86.040548 223.521101 
L 85.422824 224.939808 
L 84.577443 226.972698 
L 83.907474 227.776268 
L 83.107506 228.789992 
L 82.664595 229.696799 
L 82.389179 230.765981 
L 82.322444 231.95656 
L 82.491623 233.205746 
L 82.543977 233.892304 
L 81.58741 235.113616 
L 81.389185 236.046917 
L 81.366316 237.16859 
L 81.55058 238.608095 
L 82.007151 240.362052 
L 82.79251 242.403654 
L 83.948681 244.683741 
L 85.212477 246.717165 
L 86.751189 248.821689 
L 88.554388 250.945664 
L 90.600017 253.035929 
L 92.855122 255.040718 
L 95.277267 256.912451 
L 97.81655 258.610236 
L 100.418102 260.101906 
L 103.024898 261.365456 
L 105.580715 262.389819 
L 108.506877 263.303958 
L 111.206112 263.893427 
L 113.618751 264.195687 
L 116.022696 264.253734 
L 117.968376 264.08401 
L 119.840327 263.683839 
L 121.576448 263.063833 
L 122.966412 262.60744 
L 124.163544 262.493143 
L 126.884472 262.279392 
L 128.73168 261.900677 
L 130.525716 261.30536 
L 132.208749 260.516138 
L 134.378667 259.212191 
L 136.530645 258.013805 
L 139.394511 256.425967 
L 141.085793 255.206278 
L 142.467696 253.943176 
L 143.912523 252.303678 
L 149.914361 244.77294 
L 151.039271 242.756966 
L 152.370408 239.833219 
L 154.450446 235.3658 
L 156.089306 231.684235 
L 157.062583 228.920333 
L 158.028944 225.428691 
L 159.770339 219.105083 
L 161.378221 213.291377 
L 162.184995 209.421279 
L 165.990338 187.668687 
L 166.982551 179.253654 
L 167.97406 171.994133 
L 169.232581 162.720706 
L 169.958696 155.334315 
L 170.964328 145.37771 
L 173.078404 126.412261 
L 174.587823 110.192811 
L 176.98277 88.171593 
L 178.388375 72.764032 
L 179.104873 67.478397 
L 179.799549 63.941114 
L 180.41939 61.876813 
L 180.932986 60.823135 
L 181.391426 60.30287 
L 181.856849 60.100338 
L 182.329281 60.142611 
L 183.018314 60.464474 
L 184.529589 61.241915 
L 185.275078 61.363319 
L 186.100098 61.266298 
L 187.564423 60.796579 
L 188.609216 60.583242 
L 189.491289 60.637574 
L 192.778385 61.141819 
L 194.19163 60.898309 
L 195.746488 60.682613 
L 196.833838 60.768857 
L 199.465792 61.098678 
L 200.884611 60.95032 
L 202.949409 60.7256 
L 204.2428 60.848323 
L 206.381034 61.069684 
L 207.872727 60.948784 
L 210.151489 60.75119 
L 211.653414 60.907388 
L 213.445548 61.052787 
L 215.010472 60.930688 
L 217.216459 60.764187 
L 218.85695 60.931125 
L 220.584099 61.042569 
L 222.297667 60.895185 
L 224.213052 60.769004 
L 225.849594 60.932069 
L 227.573816 61.040644 
L 229.293352 60.889448 
L 231.142353 60.765709 
L 232.698839 60.927759 
L 234.412085 61.050993 
L 235.999212 60.902623 
L 237.941385 60.743311 
L 239.198239 60.904895 
L 240.786105 61.107349 
L 241.941754 60.996705 
L 244.512787 60.617866 
L 244.964263 60.836338 
L 245.2759 61.218176 
L 245.528417 61.898605 
L 245.680743 62.978954 
L 245.691663 64.876389 
L 245.44881 68.139151 
L 242.02773 101.986489 
L 240.437094 115.542858 
L 235.550236 157.957379 
L 233.571732 178.977812 
L 232.50913 193.532811 
L 231.863664 205.049107 
L 231.735592 209.143541 
L 231.83577 213.159441 
L 232.171289 217.464178 
L 232.717933 221.565359 
L 233.478497 225.481936 
L 234.407768 229.016088 
L 235.440069 232.071572 
L 236.666633 234.984584 
L 238.078179 237.719493 
L 239.657562 240.263829 
L 241.38244 242.624646 
L 243.46736 245.086496 
L 245.929841 247.623163 
L 248.791427 250.219793 
L 251.53621 252.425767 
L 254.44726 254.478245 
L 257.244857 256.173358 
L 259.89784 257.539356 
L 262.71926 258.757616 
L 265.704878 259.819099 
L 269.229414 260.823909 
L 273.272568 261.715475 
L 277.721915 262.450312 
L 282.710604 263.03817 
L 287.72705 263.411205 
L 291.94005 263.52162 
L 295.2474 263.390882 
L 298.452171 263.020019 
L 307.162511 261.693747 
L 309.671495 261.060923 
L 312.072496 260.22609 
L 320.209472 256.924428 
L 322.440965 255.803352 
L 324.352726 254.590081 
L 331.950119 249.148192 
L 333.622246 247.723302 
L 335.218454 246.046742 
L 339.575589 241.22741 
L 341.60519 239.013378 
L 342.768363 237.405916 
L 344.125752 235.09548 
L 345.860141 232.195165 
L 349.013539 227.304909 
L 349.808022 225.376059 
L 351.473183 221.110328 
L 353.851725 216.057532 
L 354.290281 214.084434 
L 355.037521 210.615459 
L 355.641159 209.094196 
L 356.64621 206.736805 
L 356.88298 205.469517 
L 356.963255 203.637071 
L 357.066466 200.390849 
L 357.341514 199.449105 
L 357.802218 198.710291 
L 358.375164 197.783738 
L 358.561411 197.030484 
L 358.568456 196.024772 
L 358.354095 194.793578 
L 357.897755 193.464152 
L 357.284208 192.376306 
L 356.694458 191.740781 
L 356.11594 191.400481 
L 355.45437 191.284837 
L 354.861332 191.383683 
L 354.033371 191.776781 
L 353.099367 192.493296 
L 351.821338 193.797513 
L 350.084577 195.922053 
L 345.692566 201.819365 
L 342.173238 206.345247 
L 339.078511 209.962382 
L 336.215861 212.966238 
L 333.209533 215.759641 
L 330.638937 217.856182 
L 328.053255 219.69564 
L 325.497659 221.248445 
L 323.018579 222.499718 
L 320.661366 223.449322 
L 318.467896 224.110999 
L 316.474298 224.510696 
L 314.38514 224.695424 
L 312.655344 224.62931 
L 311.103 224.343441 
L 309.912028 223.894767 
L 309.155696 223.378881 
L 308.949659 223.062327 
L 308.954727 223.296048 
L 308.74323 223.574054 
L 308.277562 223.819966 
L 307.577098 223.945191 
L 306.624764 223.893029 
L 305.453578 223.595835 
L 304.157808 223.018155 
L 303.244866 222.644384 
L 302.622174 222.77628 
L 301.799074 222.822937 
L 300.793803 222.636025 
L 299.637479 222.176417 
L 297.536005 221.232567 
L 296.4043 221.009316 
L 295.360023 220.560814 
L 294.26931 219.84067 
L 293.085383 219.047109 
L 291.548564 218.312422 
L 290.576719 217.56738 
L 286.684191 213.788503 
L 285.70784 212.426117 
L 284.427598 210.952621 
L 283.871869 209.93188 
L 283.060876 208.273177 
L 281.922979 206.427213 
L 281.549018 205.32907 
L 281.039997 203.747176 
L 279.971501 201.286225 
L 279.734277 199.928266 
L 279.462003 198.697543 
L 278.553765 195.61729 
L 278.048858 192.178464 
L 277.673591 190.406063 
L 277.618506 188.919885 
L 277.539542 187.154002 
L 277.079408 183.368021 
L 277.081161 180.262985 
L 276.838846 177.476186 
L 276.983401 175.634307 
L 277.043717 173.954374 
L 276.957297 169.831961 
L 277.226142 166.449034 
L 277.221789 163.185828 
L 277.64879 157.907069 
L 277.735454 155.829802 
L 278.115699 153.457998 
L 278.288552 151.689247 
L 278.522177 147.499129 
L 279.083288 143.412779 
L 279.289713 140.006567 
L 280.007538 134.497397 
L 280.186658 132.098649 
L 280.637232 129.69564 
L 280.913172 127.713544 
L 281.384286 122.584447 
L 281.908665 119.416739 
L 282.423043 113.969582 
L 282.893231 111.103019 
L 283.46434 105.102855 
L 283.834852 102.723069 
L 283.913808 100.330591 
L 284.079971 98.17447 
L 284.74543 92.625244 
L 284.85362 89.84859 
L 285.225235 87.517823 
L 285.45855 85.564041 
L 285.44793 83.251118 
L 285.532051 81.084137 
L 285.903218 78.624713 
L 286.051947 76.938397 
L 285.972039 74.707184 
L 285.98786 72.621586 
L 286.247034 70.674621 
L 286.457992 68.72395 
L 286.366526 67.131682 
L 286.161302 64.157832 
L 286.315503 63.017845 
L 286.618383 62.274454 
L 287.020905 61.82186 
L 287.519641 61.577912 
L 288.205931 61.49479 
L 290.042757 61.605076 
L 292.363326 61.60169 
L 295.43092 61.640859 
L 298.54777 61.601755 
L 301.552324 61.680192 
L 303.932828 61.64499 
L 306.814643 61.657583 
L 309.801121 61.697584 
L 312.996751 61.670003 
L 316.426143 61.723235 
L 319.371713 61.690208 
L 323.049813 61.748878 
L 325.814565 61.712575 
L 329.741026 61.770835 
L 332.330415 61.736994 
L 336.291029 61.801437 
L 338.848588 61.759903 
L 343.053956 61.822102 
L 345.522709 61.785169 
L 349.752905 61.856597 
L 352.420398 61.800219 
L 354.269224 61.9881 
L 355.54309 62.034468 
L 356.865887 61.858933 
L 357.793504 61.540464 
L 358.319602 61.150843 
L 358.573397 60.677011 
L 358.598438 60.082302 
L 358.36849 59.20292 
L 357.568997 56.616756 
L 357.548666 55.648661 
L 357.74132 54.740109 
L 358.283858 53.436262 
L 358.61831 52.392122 
L 358.602116 51.640627 
L 358.317925 50.759003 
L 357.313766 48.190347 
L 357.283672 47.32867 
L 357.480155 46.496491 
L 357.948223 45.546983 
L 358.750247 44.000981 
L 358.801245 43.406407 
L 358.630732 42.794336 
L 358.149922 41.978891 
L 356.996072 40.151322 
L 356.790122 39.376272 
L 356.83422 38.701929 
L 357.097345 38.046432 
L 357.69677 37.248843 
L 359.342224 35.311798 
L 359.357465 34.874413 
L 359.141873 34.428234 
L 358.610775 33.884567 
L 357.102573 32.779776 
L 355.974415 31.844262 
L 355.549361 31.258094 
L 355.429394 30.763381 
L 355.566167 30.269435 
L 355.978892 29.782261 
L 356.827039 29.214157 
L 358.211474 28.583081 
L 362.350884 26.854965 
L 362.43032 26.64433 
L 362.282066 26.437586 
L 361.668876 26.166712 
L 360.124352 25.833738 
L 356.954622 25.439923 
L 351.226063 24.987938 
L 341.838282 24.48831 
L 327.737414 23.970931 
L 308.293865 23.498017 
L 286.089592 23.187558 
L 262.710264 23.07917 
L 237.556885 23.197017 
L 212.751345 23.546583 
L 185.843138 24.160582 
L 152.227104 25.150156 
L 141.921602 25.644521 
L 133.737595 26.264218 
L 127.475118 26.941104 
L 121.362559 27.81973 
L 116.325792 28.741813 
L 111.565473 29.815327 
L 107.16624 31.025503 
L 103.199299 32.349395 
L 99.71183 33.758977 
L 96.719775 35.225145 
L 94.204729 36.722176 
L 92.115089 38.232102 
L 90.371179 39.748395 
L 88.640344 41.536162 
L 86.408292 44.202712 
L 78.66177 54.080597 
L 75.436223 58.547773 
L 72.841537 62.513212 
L 70.668865 66.210421 
L 68.638052 70.115954 
L 66.832884 74.141927 
L 65.55216 77.512723 
L 64.507748 80.825894 
L 63.719221 84.011564 
L 63.194597 87.001298 
L 62.930559 89.731651 
L 62.913443 92.147476 
L 63.120861 94.204764 
L 63.186825 94.570244 
L 63.186825 94.570244 
" style="fill:none;stroke:#9467bd;stroke-linecap:square;stroke-width:2;"/>
   </g>
   <g id="patch_3">
    <path d="M 41.667188 276.812 
L 41.667188 10.7 
" style="fill:none;stroke:#000000;stroke-linecap:square;stroke-linejoin:miter;stroke-width:0.8;"/>
   </g>
   <g id="patch_4">
    <path d="M 398.787188 276.812 
L 398.787188 10.7 
" style="fill:none;stroke:#000000;stroke-linecap:square;stroke-linejoin:miter;stroke-width:0.8;"/>
   </g>
   <g id="patch_5">
    <path d="M 41.667187 276.812 
L 398.787188 276.812 
" style="fill:none;stroke:#000000;stroke-linecap:square;stroke-linejoin:miter;stroke-width:0.8;"/>
   </g>
   <g id="patch_6">
    <path d="M 41.667187 10.7 
L 398.787188 10.7 
" style="fill:none;stroke:#000000;stroke-linecap:square;stroke-linejoin:miter;stroke-width:0.8;"/>
   </g>
   <g id="legend_1">
    <g id="patch_7">
     <path d="M 418.643188 87.090625 
L 522.347875 87.090625 
Q 524.347875 87.090625 524.347875 85.090625 
L 524.347875 12.7 
Q 524.347875 10.7 522.347875 10.7 
L 418.643188 10.7 
Q 416.643188 10.7 416.643188 12.7 
L 416.643188 85.090625 
Q 416.643188 87.090625 418.643188 87.090625 
z
" style="fill:#ffffff;opacity:0.8;stroke:#cccccc;stroke-linejoin:miter;"/>
    </g>
    <g id="patch_8">
     <path d="M 420.643188 22.298437 
L 440.643188 22.298437 
L 440.643188 15.298437 
L 420.643188 15.298437 
z
" style="fill:#0000ff;stroke:#0000ff;stroke-linejoin:miter;"/>
    </g>
    <g id="text_14">
     <!-- original image -->
     <defs>
      <path d="M 30.609375 48.390625 
Q 23.390625 48.390625 19.1875 42.75 
Q 14.984375 37.109375 14.984375 27.296875 
Q 14.984375 17.484375 19.15625 11.84375 
Q 23.34375 6.203125 30.609375 6.203125 
Q 37.796875 6.203125 41.984375 11.859375 
Q 46.1875 17.53125 46.1875 27.296875 
Q 46.1875 37.015625 41.984375 42.703125 
Q 37.796875 48.390625 30.609375 48.390625 
z
M 30.609375 56 
Q 42.328125 56 49.015625 48.375 
Q 55.71875 40.765625 55.71875 27.296875 
Q 55.71875 13.875 49.015625 6.21875 
Q 42.328125 -1.421875 30.609375 -1.421875 
Q 18.84375 -1.421875 12.171875 6.21875 
Q 5.515625 13.875 5.515625 27.296875 
Q 5.515625 40.765625 12.171875 48.375 
Q 18.84375 56 30.609375 56 
z
" id="DejaVuSans-6f"/>
      <path d="M 41.109375 46.296875 
Q 39.59375 47.171875 37.8125 47.578125 
Q 36.03125 48 33.890625 48 
Q 26.265625 48 22.1875 43.046875 
Q 18.109375 38.09375 18.109375 28.8125 
L 18.109375 0 
L 9.078125 0 
L 9.078125 54.6875 
L 18.109375 54.6875 
L 18.109375 46.1875 
Q 20.953125 51.171875 25.484375 53.578125 
Q 30.03125 56 36.53125 56 
Q 37.453125 56 38.578125 55.875 
Q 39.703125 55.765625 41.0625 55.515625 
z
" id="DejaVuSans-72"/>
      <path d="M 9.421875 54.6875 
L 18.40625 54.6875 
L 18.40625 0 
L 9.421875 0 
z
M 9.421875 75.984375 
L 18.40625 75.984375 
L 18.40625 64.59375 
L 9.421875 64.59375 
z
" id="DejaVuSans-69"/>
      <path d="M 45.40625 27.984375 
Q 45.40625 37.75 41.375 43.109375 
Q 37.359375 48.484375 30.078125 48.484375 
Q 22.859375 48.484375 18.828125 43.109375 
Q 14.796875 37.75 14.796875 27.984375 
Q 14.796875 18.265625 18.828125 12.890625 
Q 22.859375 7.515625 30.078125 7.515625 
Q 37.359375 7.515625 41.375 12.890625 
Q 45.40625 18.265625 45.40625 27.984375 
z
M 54.390625 6.78125 
Q 54.390625 -7.171875 48.1875 -13.984375 
Q 42 -20.796875 29.203125 -20.796875 
Q 24.46875 -20.796875 20.265625 -20.09375 
Q 16.0625 -19.390625 12.109375 -17.921875 
L 12.109375 -9.1875 
Q 16.0625 -11.328125 19.921875 -12.34375 
Q 23.78125 -13.375 27.78125 -13.375 
Q 36.625 -13.375 41.015625 -8.765625 
Q 45.40625 -4.15625 45.40625 5.171875 
L 45.40625 9.625 
Q 42.625 4.78125 38.28125 2.390625 
Q 33.9375 0 27.875 0 
Q 17.828125 0 11.671875 7.65625 
Q 5.515625 15.328125 5.515625 27.984375 
Q 5.515625 40.671875 11.671875 48.328125 
Q 17.828125 56 27.875 56 
Q 33.9375 56 38.28125 53.609375 
Q 42.625 51.21875 45.40625 46.390625 
L 45.40625 54.6875 
L 54.390625 54.6875 
z
" id="DejaVuSans-67"/>
      <path d="M 54.890625 33.015625 
L 54.890625 0 
L 45.90625 0 
L 45.90625 32.71875 
Q 45.90625 40.484375 42.875 44.328125 
Q 39.84375 48.1875 33.796875 48.1875 
Q 26.515625 48.1875 22.3125 43.546875 
Q 18.109375 38.921875 18.109375 30.90625 
L 18.109375 0 
L 9.078125 0 
L 9.078125 54.6875 
L 18.109375 54.6875 
L 18.109375 46.1875 
Q 21.34375 51.125 25.703125 53.5625 
Q 30.078125 56 35.796875 56 
Q 45.21875 56 50.046875 50.171875 
Q 54.890625 44.34375 54.890625 33.015625 
z
" id="DejaVuSans-6e"/>
      <path d="M 34.28125 27.484375 
Q 23.390625 27.484375 19.1875 25 
Q 14.984375 22.515625 14.984375 16.5 
Q 14.984375 11.71875 18.140625 8.90625 
Q 21.296875 6.109375 26.703125 6.109375 
Q 34.1875 6.109375 38.703125 11.40625 
Q 43.21875 16.703125 43.21875 25.484375 
L 43.21875 27.484375 
z
M 52.203125 31.203125 
L 52.203125 0 
L 43.21875 0 
L 43.21875 8.296875 
Q 40.140625 3.328125 35.546875 0.953125 
Q 30.953125 -1.421875 24.3125 -1.421875 
Q 15.921875 -1.421875 10.953125 3.296875 
Q 6 8.015625 6 15.921875 
Q 6 25.140625 12.171875 29.828125 
Q 18.359375 34.515625 30.609375 34.515625 
L 43.21875 34.515625 
L 43.21875 35.40625 
Q 43.21875 41.609375 39.140625 45 
Q 35.0625 48.390625 27.6875 48.390625 
Q 23 48.390625 18.546875 47.265625 
Q 14.109375 46.140625 10.015625 43.890625 
L 10.015625 52.203125 
Q 14.9375 54.109375 19.578125 55.046875 
Q 24.21875 56 28.609375 56 
Q 40.484375 56 46.34375 49.84375 
Q 52.203125 43.703125 52.203125 31.203125 
z
" id="DejaVuSans-61"/>
      <path d="M 9.421875 75.984375 
L 18.40625 75.984375 
L 18.40625 0 
L 9.421875 0 
z
" id="DejaVuSans-6c"/>
      <path id="DejaVuSans-20"/>
      <path d="M 52 44.1875 
Q 55.375 50.25 60.0625 53.125 
Q 64.75 56 71.09375 56 
Q 79.640625 56 84.28125 50.015625 
Q 88.921875 44.046875 88.921875 33.015625 
L 88.921875 0 
L 79.890625 0 
L 79.890625 32.71875 
Q 79.890625 40.578125 77.09375 44.375 
Q 74.3125 48.1875 68.609375 48.1875 
Q 61.625 48.1875 57.5625 43.546875 
Q 53.515625 38.921875 53.515625 30.90625 
L 53.515625 0 
L 44.484375 0 
L 44.484375 32.71875 
Q 44.484375 40.625 41.703125 44.40625 
Q 38.921875 48.1875 33.109375 48.1875 
Q 26.21875 48.1875 22.15625 43.53125 
Q 18.109375 38.875 18.109375 30.90625 
L 18.109375 0 
L 9.078125 0 
L 9.078125 54.6875 
L 18.109375 54.6875 
L 18.109375 46.1875 
Q 21.1875 51.21875 25.484375 53.609375 
Q 29.78125 56 35.6875 56 
Q 41.65625 56 45.828125 52.96875 
Q 50 49.953125 52 44.1875 
z
" id="DejaVuSans-6d"/>
      <path d="M 56.203125 29.59375 
L 56.203125 25.203125 
L 14.890625 25.203125 
Q 15.484375 15.921875 20.484375 11.0625 
Q 25.484375 6.203125 34.421875 6.203125 
Q 39.59375 6.203125 44.453125 7.46875 
Q 49.3125 8.734375 54.109375 11.28125 
L 54.109375 2.78125 
Q 49.265625 0.734375 44.1875 -0.34375 
Q 39.109375 -1.421875 33.890625 -1.421875 
Q 20.796875 -1.421875 13.15625 6.1875 
Q 5.515625 13.8125 5.515625 26.8125 
Q 5.515625 40.234375 12.765625 48.109375 
Q 20.015625 56 32.328125 56 
Q 43.359375 56 49.78125 48.890625 
Q 56.203125 41.796875 56.203125 29.59375 
z
M 47.21875 32.234375 
Q 47.125 39.59375 43.09375 43.984375 
Q 39.0625 48.390625 32.421875 48.390625 
Q 24.90625 48.390625 20.390625 44.140625 
Q 15.875 39.890625 15.1875 32.171875 
z
" id="DejaVuSans-65"/>
     </defs>
     <g transform="translate(448.643188 22.298437)scale(0.1 -0.1)">
      <use xlink:href="#DejaVuSans-6f"/>
      <use x="61.181641" xlink:href="#DejaVuSans-72"/>
      <use x="102.294922" xlink:href="#DejaVuSans-69"/>
      <use x="130.078125" xlink:href="#DejaVuSans-67"/>
      <use x="193.554688" xlink:href="#DejaVuSans-69"/>
      <use x="221.337891" xlink:href="#DejaVuSans-6e"/>
      <use x="284.716797" xlink:href="#DejaVuSans-61"/>
      <use x="345.996094" xlink:href="#DejaVuSans-6c"/>
      <use x="373.779297" xlink:href="#DejaVuSans-20"/>
      <use x="405.566406" xlink:href="#DejaVuSans-69"/>
      <use x="433.349609" xlink:href="#DejaVuSans-6d"/>
      <use x="530.761719" xlink:href="#DejaVuSans-61"/>
      <use x="592.041016" xlink:href="#DejaVuSans-67"/>
      <use x="655.517578" xlink:href="#DejaVuSans-65"/>
     </g>
    </g>
    <g id="patch_9">
     <path d="M 420.643188 36.976562 
L 440.643188 36.976562 
L 440.643188 29.976562 
L 420.643188 29.976562 
z
" style="fill:#ffa500;stroke:#ffa500;stroke-linejoin:miter;"/>
    </g>
    <g id="text_15">
     <!-- 9 terms -->
     <defs>
      <path d="M 10.984375 1.515625 
L 10.984375 10.5 
Q 14.703125 8.734375 18.5 7.8125 
Q 22.3125 6.890625 25.984375 6.890625 
Q 35.75 6.890625 40.890625 13.453125 
Q 46.046875 20.015625 46.78125 33.40625 
Q 43.953125 29.203125 39.59375 26.953125 
Q 35.25 24.703125 29.984375 24.703125 
Q 19.046875 24.703125 12.671875 31.3125 
Q 6.296875 37.9375 6.296875 49.421875 
Q 6.296875 60.640625 12.9375 67.421875 
Q 19.578125 74.21875 30.609375 74.21875 
Q 43.265625 74.21875 49.921875 64.515625 
Q 56.59375 54.828125 56.59375 36.375 
Q 56.59375 19.140625 48.40625 8.859375 
Q 40.234375 -1.421875 26.421875 -1.421875 
Q 22.703125 -1.421875 18.890625 -0.6875 
Q 15.09375 0.046875 10.984375 1.515625 
z
M 30.609375 32.421875 
Q 37.25 32.421875 41.125 36.953125 
Q 45.015625 41.5 45.015625 49.421875 
Q 45.015625 57.28125 41.125 61.84375 
Q 37.25 66.40625 30.609375 66.40625 
Q 23.96875 66.40625 20.09375 61.84375 
Q 16.21875 57.28125 16.21875 49.421875 
Q 16.21875 41.5 20.09375 36.953125 
Q 23.96875 32.421875 30.609375 32.421875 
z
" id="DejaVuSans-39"/>
      <path d="M 18.3125 70.21875 
L 18.3125 54.6875 
L 36.8125 54.6875 
L 36.8125 47.703125 
L 18.3125 47.703125 
L 18.3125 18.015625 
Q 18.3125 11.328125 20.140625 9.421875 
Q 21.96875 7.515625 27.59375 7.515625 
L 36.8125 7.515625 
L 36.8125 0 
L 27.59375 0 
Q 17.1875 0 13.234375 3.875 
Q 9.28125 7.765625 9.28125 18.015625 
L 9.28125 47.703125 
L 2.6875 47.703125 
L 2.6875 54.6875 
L 9.28125 54.6875 
L 9.28125 70.21875 
z
" id="DejaVuSans-74"/>
      <path d="M 44.28125 53.078125 
L 44.28125 44.578125 
Q 40.484375 46.53125 36.375 47.5 
Q 32.28125 48.484375 27.875 48.484375 
Q 21.1875 48.484375 17.84375 46.4375 
Q 14.5 44.390625 14.5 40.28125 
Q 14.5 37.15625 16.890625 35.375 
Q 19.28125 33.59375 26.515625 31.984375 
L 29.59375 31.296875 
Q 39.15625 29.25 43.1875 25.515625 
Q 47.21875 21.78125 47.21875 15.09375 
Q 47.21875 7.46875 41.1875 3.015625 
Q 35.15625 -1.421875 24.609375 -1.421875 
Q 20.21875 -1.421875 15.453125 -0.5625 
Q 10.6875 0.296875 5.421875 2 
L 5.421875 11.28125 
Q 10.40625 8.6875 15.234375 7.390625 
Q 20.0625 6.109375 24.8125 6.109375 
Q 31.15625 6.109375 34.5625 8.28125 
Q 37.984375 10.453125 37.984375 14.40625 
Q 37.984375 18.0625 35.515625 20.015625 
Q 33.0625 21.96875 24.703125 23.78125 
L 21.578125 24.515625 
Q 13.234375 26.265625 9.515625 29.90625 
Q 5.8125 33.546875 5.8125 39.890625 
Q 5.8125 47.609375 11.28125 51.796875 
Q 16.75 56 26.8125 56 
Q 31.78125 56 36.171875 55.265625 
Q 40.578125 54.546875 44.28125 53.078125 
z
" id="DejaVuSans-73"/>
     </defs>
     <g transform="translate(448.643188 36.976562)scale(0.1 -0.1)">
      <use xlink:href="#DejaVuSans-39"/>
      <use x="63.623047" xlink:href="#DejaVuSans-20"/>
      <use x="95.410156" xlink:href="#DejaVuSans-74"/>
      <use x="134.619141" xlink:href="#DejaVuSans-65"/>
      <use x="196.142578" xlink:href="#DejaVuSans-72"/>
      <use x="237.240234" xlink:href="#DejaVuSans-6d"/>
      <use x="334.652344" xlink:href="#DejaVuSans-73"/>
     </g>
    </g>
    <g id="patch_10">
     <path d="M 420.643188 51.654687 
L 440.643188 51.654687 
L 440.643188 44.654687 
L 420.643188 44.654687 
z
" style="fill:#008000;stroke:#008000;stroke-linejoin:miter;"/>
    </g>
    <g id="text_16">
     <!-- 21 terms -->
     <g transform="translate(448.643188 51.654687)scale(0.1 -0.1)">
      <use xlink:href="#DejaVuSans-32"/>
      <use x="63.623047" xlink:href="#DejaVuSans-31"/>
      <use x="127.246094" xlink:href="#DejaVuSans-20"/>
      <use x="159.033203" xlink:href="#DejaVuSans-74"/>
      <use x="198.242188" xlink:href="#DejaVuSans-65"/>
      <use x="259.765625" xlink:href="#DejaVuSans-72"/>
      <use x="300.863281" xlink:href="#DejaVuSans-6d"/>
      <use x="398.275391" xlink:href="#DejaVuSans-73"/>
     </g>
    </g>
    <g id="patch_11">
     <path d="M 420.643188 66.332812 
L 440.643188 66.332812 
L 440.643188 59.332812 
L 420.643188 59.332812 
z
" style="fill:#ff0000;stroke:#ff0000;stroke-linejoin:miter;"/>
    </g>
    <g id="text_17">
     <!-- 81 terms -->
     <defs>
      <path d="M 31.78125 34.625 
Q 24.75 34.625 20.71875 30.859375 
Q 16.703125 27.09375 16.703125 20.515625 
Q 16.703125 13.921875 20.71875 10.15625 
Q 24.75 6.390625 31.78125 6.390625 
Q 38.8125 6.390625 42.859375 10.171875 
Q 46.921875 13.96875 46.921875 20.515625 
Q 46.921875 27.09375 42.890625 30.859375 
Q 38.875 34.625 31.78125 34.625 
z
M 21.921875 38.8125 
Q 15.578125 40.375 12.03125 44.71875 
Q 8.5 49.078125 8.5 55.328125 
Q 8.5 64.0625 14.71875 69.140625 
Q 20.953125 74.21875 31.78125 74.21875 
Q 42.671875 74.21875 48.875 69.140625 
Q 55.078125 64.0625 55.078125 55.328125 
Q 55.078125 49.078125 51.53125 44.71875 
Q 48 40.375 41.703125 38.8125 
Q 48.828125 37.15625 52.796875 32.3125 
Q 56.78125 27.484375 56.78125 20.515625 
Q 56.78125 9.90625 50.3125 4.234375 
Q 43.84375 -1.421875 31.78125 -1.421875 
Q 19.734375 -1.421875 13.25 4.234375 
Q 6.78125 9.90625 6.78125 20.515625 
Q 6.78125 27.484375 10.78125 32.3125 
Q 14.796875 37.15625 21.921875 38.8125 
z
M 18.3125 54.390625 
Q 18.3125 48.734375 21.84375 45.5625 
Q 25.390625 42.390625 31.78125 42.390625 
Q 38.140625 42.390625 41.71875 45.5625 
Q 45.3125 48.734375 45.3125 54.390625 
Q 45.3125 60.0625 41.71875 63.234375 
Q 38.140625 66.40625 31.78125 66.40625 
Q 25.390625 66.40625 21.84375 63.234375 
Q 18.3125 60.0625 18.3125 54.390625 
z
" id="DejaVuSans-38"/>
     </defs>
     <g transform="translate(448.643188 66.332812)scale(0.1 -0.1)">
      <use xlink:href="#DejaVuSans-38"/>
      <use x="63.623047" xlink:href="#DejaVuSans-31"/>
      <use x="127.246094" xlink:href="#DejaVuSans-20"/>
      <use x="159.033203" xlink:href="#DejaVuSans-74"/>
      <use x="198.242188" xlink:href="#DejaVuSans-65"/>
      <use x="259.765625" xlink:href="#DejaVuSans-72"/>
      <use x="300.863281" xlink:href="#DejaVuSans-6d"/>
      <use x="398.275391" xlink:href="#DejaVuSans-73"/>
     </g>
    </g>
    <g id="patch_12">
     <path d="M 420.643188 81.010937 
L 440.643188 81.010937 
L 440.643188 74.010937 
L 420.643188 74.010937 
z
" style="fill:#800080;stroke:#800080;stroke-linejoin:miter;"/>
    </g>
    <g id="text_18">
     <!-- 201 terms -->
     <g transform="translate(448.643188 81.010937)scale(0.1 -0.1)">
      <use xlink:href="#DejaVuSans-32"/>
      <use x="63.623047" xlink:href="#DejaVuSans-30"/>
      <use x="127.246094" xlink:href="#DejaVuSans-31"/>
      <use x="190.869141" xlink:href="#DejaVuSans-20"/>
      <use x="222.65625" xlink:href="#DejaVuSans-74"/>
      <use x="261.865234" xlink:href="#DejaVuSans-65"/>
      <use x="323.388672" xlink:href="#DejaVuSans-72"/>
      <use x="364.486328" xlink:href="#DejaVuSans-6d"/>
      <use x="461.898438" xlink:href="#DejaVuSans-73"/>
     </g>
    </g>
   </g>
  </g>
 </g>
 <defs>
  <clipPath id="p1e1816346f">
   <rect height="266.112" width="357.12" x="41.667188" y="10.7"/>
  </clipPath>
 </defs>
</svg>
